<svg class="navbar-brand-svg" xmlns="http://www.w3.org/2000/svg" version="1.0" preserveAspectRatio="xMidYMid meet" viewBox="419.9 821.18 1080.13 277.02" width="85" height="20">

<g class="navbar-brand-svg-text" transform="translate(0.000000,1920.000000) scale(0.100000,-0.100000)" stroke="none">
<path d="M5595 10980 c-137 -13 -242 -45 -364 -111 -120 -65 -195 -131 -286 -254 -13 -18 -14 -4 -15 133 l0 152 -365 0 -366 0 3 -702 3 -703 31 -60 c35 -66 110 -142 170 -173 186 -94 422 -15 515 173 26 54 32 80 40 182 19 237 81 397 203 519 44 43 92 81 126 96 165 78 351 47 468 -75 60 -64 86 -113 115 -215 20 -74 21 -103 27 -717 l5 -640 27 -57 c35 -76 109 -153 183 -192 56 -29 67 -31 165 -31 92 0 112 3 160 26 95 44 162 116 206 219 17 42 19 85 24 630 6 569 7 587 29 660 88 293 306 467 537 430 193 -31 297 -140 351 -370 13 -54 17 -176 22 -695 l6 -630 27 -57 c34 -74 112 -152 186 -186 50 -24 69 -27 162 -27 95 0 111 3 162 28 79 39 143 104 181 185 l32 67 0 690 c0 676 0 693 -23 817 -32 177 -65 287 -122 403 -145 296 -377 455 -709 485 -386 33 -701 -116 -931 -442 l-48 -68 -48 88 c-36 64 -74 112 -144 183 -84 84 -108 102 -200 148 -155 77 -348 109 -545 91z"/>
<path d="M11100 10983 c-299 -20 -552 -141 -708 -338 l-31 -40 -1 148 0 147 -370 0 -370 0 2 -1163 3 -1162 33 -67 c38 -78 100 -138 182 -177 48 -23 68 -26 160 -26 99 0 110 2 171 32 80 39 150 111 187 191 l27 57 6 585 c6 617 5 602 53 739 62 174 212 310 386 352 137 33 308 4 411 -70 89 -63 134 -135 172 -269 20 -74 21 -105 26 -707 l6 -630 27 -57 c37 -80 107 -152 187 -191 61 -30 72 -32 171 -32 99 0 109 2 166 32 78 41 141 104 179 179 l30 59 3 635 c3 664 -1 772 -40 950 -109 507 -403 780 -883 820 -66 5 -124 9 -130 8 -5 -1 -30 -3 -55 -5z"/>
<path d="M13535 10979 c-327 -25 -614 -157 -845 -389 -286 -285 -430 -697 -391 -1118 18 -202 57 -344 142 -515 160 -323 428 -557 770 -671 144 -48 274 -68 454 -68 282 0 481 52 711 188 119 69 196 140 231 212 25 50 28 68 28 152 0 84 -3 102 -28 152 -36 74 -119 150 -195 178 -45 17 -74 21 -137 18 -97 -4 -162 -32 -245 -106 -106 -95 -201 -126 -375 -126 -105 0 -130 3 -199 27 -187 66 -312 206 -366 413 l-18 69 959 3 958 2 7 57 c12 95 -3 378 -24 478 -104 479 -433 849 -880 989 -156 49 -370 70 -557 55z m289 -649 c184 -47 318 -165 368 -323 10 -33 18 -63 18 -68 0 -5 -228 -9 -555 -9 l-554 0 14 41 c44 124 155 254 264 309 138 69 299 88 445 50z"/>
<path d="M8600 9767 c0 -1237 -2 -1183 57 -1284 33 -57 104 -120 171 -151 50 -24 69 -27 162 -27 96 0 110 3 165 29 115 57 194 164 215 293 6 34 10 511 10 1166 l0 1107 -390 0 -390 0 0 -1133z"/>
<path d="M4460 9045 c-109 -35 -214 -143 -247 -254 -23 -80 -14 -199 19 -273 34 -73 106 -146 183 -184 55 -26 69 -29 165 -29 96 0 110 3 165 29 74 37 145 108 182 183 25 53 28 68 28 163 0 95 -3 110 -28 163 -37 74 -110 148 -184 183 -48 23 -74 28 -148 31 -59 2 -106 -2 -135 -12z"/>
</g>
</svg>